# xmcd
#
# Track frame offsets:
# 150
# 11072
# 21950
# 32105
# 43252
# 55508
# 64195
# 75157
# 87929
# 97365
# 107864
# 123962
# 137629
# 146324
#
# Disc length: 2065 seconds
#
#
# Revision: 0
# Processed by: cddbd v1.5.2PL0 Copyright (c) Steve Scherf et al.
# Submitted via: FreeRIP 2.951 
#
DISCID=b8080f0e
DTITLE=Elvis Presley - Christmas Wishes
DYEAR=2006
DGENRE=Oldies
TTITLE0=Santa Claus Is Back In Town
TTITLE1=White Christmas
TTITLE2=Sikent Night
TTITLE3=Silver Bell
TTITLE4=It Won't Seen Like Christmas
TTITLE5=Here Comes Santa Claus
TTITLE6=Crying In The Chapel
TTITLE7=O Come All Ye Faithful
TTITLE8=In My Father's House
TTITLE9=Winter Wonderland
TTITLE10=Amazing Grace
TTITLE11=How Great Thou Art
TTITLE12=An Evening Prayer
TTITLE13=I'll Be Home For Christmas
EXTD=TCM
EXTT0=
EXTT1=
EXTT2=
EXTT3=
EXTT4=
EXTT5=
EXTT6=
EXTT7=
EXTT8=
EXTT9=
EXTT10=
EXTT11=
EXTT12=
EXTT13=
PLAYORDER=
